/* XPM */
static char *blackhole1704995575[] = {
/* columns rows colors chars-per-pixel */
"32 32 22 1 ",
"  c black",
". c #0B0B0B",
"X c #202020",
"o c gray22",
"O c #000A5F",
"+ c #000863",
"@ c #000C61",
"# c #232C7F",
"$ c #4E4E4E",
"% c #5A5A5A",
"& c #0019A6",
"* c #654196",
"= c #5977B4",
"- c #7133CA",
"; c #FF67A4",
": c #C33CD9",
"> c #DA51EE",
", c #7497D3",
"< c #95B4E7",
"1 c #B0D1F1",
"2 c gray87",
"3 c white",
/* pixels */
"       %              2    3    ",
"                     2          ",
"                                ",
"  3   3                3        ",
"            2   3             3 ",
"                                ",
"        <1<                     ",
"        1<<    ;;     ,<<       ",
"        1<<< ;>>>>;  ,<<<1      ",
"         1<,, >--> ,<<<111      ",
"          1<,# && #,<1          ",
"           #=#    #,#      2   X",
"         ;:* =#  #= *:;         ",
"      ;;>:-&@ O  O @&-:>;;      ",
"     ;>>-@&O    =   O&@->>;     ",
"    ;>-O&&&  =       &&&-->;    ",
"    ;>---@@          @@--->;    ",
"     ;>>--+@    =   O@-->>;     ",
"      ;;>>-&O O  O O&->>;;      ",
"         ;>- =#  #= ->;        o",
"           #,#    #=#           ",
"          1<,# && #,<1          ",
"      111<<,, >-->  ,<1         ",
"      1<<<,  ;>>>>; ,<<1        ",
"       <<,     ;;    ,<1        ",
"                     ,<<        ",
"                                ",
" 3      %                    3  ",
"                                ",
"              3                 ",
"       3             2 %        ",
"          X    .    $3        33"
};
