/* XPM */
static char *pixil_frame_0_2_1707001199[] = {
/* columns rows colors chars-per-pixel */
"32 32 17 1 ",
"  c black",
". c #040404",
"X c #000A5F",
"o c #000863",
"O c #000C61",
"+ c #232C7F",
"@ c #52137D",
"# c #464646",
"$ c #5A5A5A",
"% c #C22D5C",
"& c #0019A6",
"* c #734491",
"= c #5977B4",
"- c #7497D3",
"; c #95B4E7",
": c #B0D1F1",
"> c white",
/* pixels */
"                                ",
"                                ",
"                                ",
"      #                >        ",
"            #                   ",
"                                ",
"        ;:;                     ",
"        :;;    **     -;;       ",
"        :;;; *%%%%*  -;;;:      ",
"         :;-- %@@% -;;;:::      ",
"          :;-+ && +-;:          ",
"         # +=+    +-+           ",
"         *%@ =+  += @%*         ",
"      **%%@&O X  X O&@%%**      ",
"     *%%@O&X    =   X&O@%%*     ",
"    *%@X&&&  =       &&&@@%*    ",
"    *%@@@OO          OO@@@%*    ",
"     *%%@@oO    =   XO@@%%*     ",
"      ***%@&X X  X X&@%%**      ",
"         *%@ =+  += @%*         ",
"           +-+    +=+           ",
"          :;-+ && +-;:          ",
"      :::;;-- %@@%  -;:         ",
"      :;;;-  *%%%%* -;;:#       ",
"       ;;-     **    -;:        ",
"                                ",
"       .                        ",
"        $            #          ",
"                                ",
"                                ",
"                                ",
"                                "
};
