/* XPM */
static char *blackhole1704987904[] = {
/* columns rows colors chars-per-pixel */
"32 32 19 1 ",
"  c None",
". c black",
"X c #070761",
"o c #000066",
"O c #080862",
"+ c #090963",
"@ c #0A0A64",
"# c #292983",
"$ c #0B0BAC",
"% c #63409A",
"& c #6075B8",
"* c #6F30D1",
"= c #F66EA7",
"- c #BA3FE0",
"; c #D054F5",
": c #7B95D7",
"> c #9AB1EB",
", c #9BB2EB",
"< c #B6D0F3",
/* pixels */
"                                ",
"                                ",
"                                ",
"                                ",
"       ....                     ",
"      ......   ..     ....      ",
"      ..,<,........  ......     ",
"      ..<,,....==.....:,,...    ",
"      ..<,,,.=;;;;=..:,,,<..    ",
"       ..<,::.;**;.:,,,<<<..    ",
"       ...<,:#.$$.#:,<.....     ",
"      .....#&#....#:#.....      ",
"    .....=-%.&#..#&.%-=.....    ",
"   ...==;-*$@.X..X.@$*-;==...   ",
"  ...=;;*@$O....&...O$@*;;=...  ",
"  ..=;*O$$$..&.......$$$**;=..  ",
"  ..=;***@@..........@@***;=..  ",
"  ...=;;**o@....&...O@**;;=...  ",
"   ...==;;*$O.O..O.O$*;;==...   ",
"    .....=;*.&#..#&.*;=.....    ",
"      .....#:#....#&#.....      ",
"     .....<,:#.$$.#:,<...       ",
"    ..<<<,,::.;**;..:,<..       ",
"    ..<,,,:..=;;;;=.:,,<..      ",
"    ...,,:.....==....:,<..      ",
"     ......  ........:,,..      ",
"      ....     ..   ......      ",
"                     ....       ",
"                                ",
"                                ",
"                                ",
"                                "
};
