/* XPM */
static char *earth1704995575[] = {
/* columns rows colors chars-per-pixel */
"32 32 10 1 ",
"  c black",
". c #0B0B0B",
"X c #202020",
"o c gray22",
"O c #4E4E4E",
"+ c #5A5A5A",
"@ c #42FF00",
"# c #0018FF",
"$ c gray87",
"% c white",
/* pixels */
"       +              $    %    ",
"            %%%%%%%% $          ",
"         ####%%%%%%####         ",
"  %   % ################        ",
"      #############@#@#@@@    % ",
"     ##########@@##@@@@@@@@     ",
"    ##########@#@##@@@@@@@@@    ",
"    ##############@@@@@##@@@    ",
"   ###########@@@@@@@@@@##@@@   ",
"  @@@@########@@@@@@@@@@@##@@@  ",
"  @@@@########@@@@@@@@@@@@@@@@  ",
"  @@@@@@########@@@@@@@@@@@@@@ X",
" @@@@@@@########@@####@@@@@@@@@ ",
" @@@@@@@######@@#######@@@@@@@@ ",
" @@@@@@@###############@@@@@@@@ ",
" @@@@@@@#####@@@@@@@########### ",
" @@@@@@@####@@@@@@@@########### ",
" @@@@@@#####@@@@@@@@@########## ",
" @@@@@######@@@@@@@@@########## ",
" @@@@@######@@@@@@@@@##########o",
"  ##@@########@@@@@@@#########  ",
"  ############@@@@@@@#########  ",
"  ############@@@@@@@#########  ",
"   ###########@@@@@@#########   ",
"    ###########@@@@#########    ",
"    ############@@@#########    ",
"     ######################     ",
" %    ####################   %  ",
"        ################        ",
"         ####%%%%%%####         ",
"       %    %%%%%%%% $ +        ",
"          X    .    O%        %%"
};
