/* XPM */
static char *earth1707000486[] = {
/* columns rows colors chars-per-pixel */
"32 32 10 1 ",
"  c black",
". c #040404",
"X c gray12",
"o c #1C7034",
"O c #0F1C47",
"+ c #152B70",
"@ c #464646",
"# c #5A5A5A",
"$ c gray76",
"% c white",
/* pixels */
"                                ",
"                                ",
"                                ",
"      @                %        ",
"            @                   ",
"                                ",
"                                ",
"                                ",
"          OOO%%%%%%OOO          ",
"         OO+++%%%%+++OO         ",
"        OO++++++++++++OO X      ",
"       OO++++++++++++++OO       ",
"      OOo++++o++oooooo++OO      ",
"      Ooooo+++ooooooooo++O      ",
"      Oooo++++oooooooooo+O      ",
"      Oooo++++o+o+oooooo+O      ",
"      Ooo+++++++++++oo+++O      ",
"      O+o+++++oooo++o++++O@     ",
"      Ooooo+++oooo+++++o+O      ",
"      Ooooo+++ooo++++++++O      ",
"      Ooooo+++oo++++o++++O      ",
"      OOoo++++o++++o++++OO      ",
"       OOo+++++++++++++OO       ",
"        OO++++++++++++OO        ",
"       $ OO+++%%%%+++OO         ",
"          OOO%%%%%%OOO          ",
"       .                        ",
"        #            @          ",
"                                ",
"                                ",
"                                ",
"                                "
};
