/* XPM */
static char *earth1704987905[] = {
/* columns rows colors chars-per-pixel */
"32 32 4 1 ",
"  c None",
". c #42FF00",
"X c #0018FF",
"o c white",
/* pixels */
"                                ",
"            oooooooo            ",
"         XXXXooooooXXXX         ",
"        XXXXXXXXXXXXXXXX        ",
"      XXXXXXXXXXXXX.X.X...      ",
"     XXXXXXXXXX..XX........     ",
"    XXXXXXXXXX.X.XX.........    ",
"    XXXXXXXXXXXXXX.....XX...    ",
"   XXXXXXXXXXX..........XX...   ",
"  ....XXXXXXXX...........XX...  ",
"  ....XXXXXXXX................  ",
"  ......XXXXXXXX..............  ",
" .......XXXXXXXX..XXXX......... ",
" .......XXXXXX..XXXXXXX........ ",
" .......XXXXXXXXXXXXXXX........ ",
" .......XXXXX.......XXXXXXXXXXX ",
" .......XXXX........XXXXXXXXXXX ",
" ......XXXXX.........XXXXXXXXXX ",
" .....XXXXXX.........XXXXXXXXXX ",
" .....XXXXXX.........XXXXXXXXXX ",
"  XX..XXXXXXXX.......XXXXXXXXX  ",
"  XXXXXXXXXXXX.......XXXXXXXXX  ",
"  XXXXXXXXXXXX.......XXXXXXXXX  ",
"   XXXXXXXXXXX......XXXXXXXXX   ",
"    XXXXXXXXXXX....XXXXXXXXX    ",
"    XXXXXXXXXXXX...XXXXXXXXX    ",
"     XXXXXXXXXXXXXXXXXXXXXX     ",
"      XXXXXXXXXXXXXXXXXXXX      ",
"        XXXXXXXXXXXXXXXX        ",
"         XXXXooooooXXXX         ",
"            oooooooo            ",
"                                "
};
