/* XPM */
static char *_b71306b835246cadbfb903ae9ca1c96QgMsS3IWn7cyT9kb[] = {
/* columns rows colors chars-per-pixel */
"32 32 13 1 ",
"  c black",
". c #040404",
"X c #0B0B0B",
"o c gray10",
"O c gray12",
"+ c #202020",
"@ c gray22",
"# c #444444",
"$ c #4E4E4E",
"% c #5A5A5A",
"& c #C1C1C1",
"* c gray87",
"= c white",
/* pixels */
"       %              *    =    ",
"                     *          ",
"                                ",
"  =   =                =        ",
"            *   =             = ",
"                                ",
"                                ",
"                                ",
"                   %            ",
"                                ",
"                         O      ",
"         *                 *   +",
"       o           =      %     ",
"        *                       ",
"      &                         ",
"                           X    ",
"        +                   &   ",
"                          * *   ",
"                 $              ",
"                 =O            @",
"                                ",
"                                ",
"                                ",
"         =                      ",
"       &                        ",
"                                ",
"       .                        ",
" =      %            #       =  ",
"                                ",
"              =                 ",
"       =             * %        ",
"          +    X    $=        =="
};
