/* XPM */
static char *fuel1704987905[] = {
/* columns rows colors chars-per-pixel */
"32 32 3 1 ",
"  c None",
". c black",
"X c #FF5400",
/* pixels */
"                                ",
"   ......                       ",
"   ......                       ",
" XXXXXXXXXXXXXXXXXXXXXX         ",
" XXXXXXXX.XX          X         ",
" XXXXXXXX.XX          X         ",
" XXXXXXXX.XX          X         ",
" XXXXXXXX.XX          X         ",
" XXXXXXXX.XX          X         ",
" XXXXXXXXXXXXXXXXXXXXXXXXX      ",
" XXXXXXXXXXXXXXXXXXXXXXXXX      ",
" XXXXXX..XXXXX..XXXXXXXXXX      ",
" XXXXX.XXXXXXXXX.XXXXXXXXX      ",
" XXXX.XXXXXXXXXXX.XXXXXXXX      ",
" XXX.XXXXXXXXXXXXX.XXXXXXX      ",
" XX.XXXXXXXXXXXXXXX.XXXXXX      ",
" XX.XXXX.XXXX.XXXXX.XXXXXX      ",
" XXXXXXXX.XX.XXXXXXXXXXXXX      ",
" XXXXXXXXX..XXXXXXXXXXXXXX      ",
" XXXXXXXXX..XXXXXXXXXXXXXX      ",
" XXXXXXXX.XX.XXXXXXXXXXXXX      ",
" XX.XXXX.XXXX.XXXXX.XXXXXX      ",
" XX.XXXXXXXXXXXXXXX.XXXXXX      ",
" XXX.XXXXXXXXXXXXX.XXXXXXX      ",
" XXXX.XXXXXXXXXXX.XXXXXXXX      ",
" XXXXX.XXXXXXXXX.XXXXXXXXX      ",
" XXXXXX.XXXXXXX.XXXXXXXXXX      ",
" XXXXXXX..XXX..XXXXXXXXXXX      ",
" XXXXXXXXXXXXXXXXXXXXXXXXX      ",
" XXXXXXXXXXXXXXXXXXXXXXXXX      ",
" XXXXXXXXXXXXXXXXXXXXXXXXX      ",
"                                "
};
