/* XPM */
static char *fuel_dd1704995670[] = {
/* columns rows colors chars-per-pixel */
"32 32 10 1 ",
"  c black",
". c #0B0B0B",
"X c #202020",
"o c gray22",
"O c #4E4E4E",
"+ c #5A5A5A",
"@ c #FF5400",
"# c gray76",
"$ c gray87",
"% c white",
/* pixels */
"                      $    %    ",
"                     $          ",
"    @@@@@@@@@@@@@@@@@@@@@       ",
"  % @@@@@@@@ @@        %@       ",
"    @@@@@@@@ @@ %       @     % ",
"    @@@@@@@@ @@         @       ",
"    @@@@@@@@ @@         @       ",
"    @@@@@@@@ @@         @       ",
"    @@@@@@@@@@@@@@@@@@@@@@@@    ",
"    @@@@@@@@@@@@@@@@@@@@@@@@    ",
"    @@@@@@  @@@@@ @@@@@@@@@@    ",
"    @@@@@ @@@@@@@@ @@@@@@@@@   X",
"    @@@@ @@@@@@@@@@ @@@@@@@@    ",
"    @@@ @@@@@@@@@@@@ @@@@@@@    ",
"    @@ @@@@@@@@@@@@@@ @@@@@@    ",
"    @@ @@@@ @@@@ @@@@ @@@@@@    ",
"    @@@@@@@@ @@ @@@@@@@@@@@@#   ",
"    @@@@@@@@@  @@@@@@@@@@@@@$   ",
"    @@@@@@@@@  @@@@@@@@@@@@@    ",
"    @@@@@@@@ @@ @@@@@@@@@@@@   o",
"    @@ @@@@ @@@@ @@@@ @@@@@@    ",
"    @@ @@@@@@@@@@@@@@ @@@@@@    ",
"    @@@ @@@@@@@@@@@@ @@@@@@@    ",
"    @@@@ @@@@@@@@@@ @@@@@@@@    ",
"    @@@@@ @@@@@@@@ @@@@@@@@@    ",
"    @@@@@@ @@@@@@ @@@@@@@@@@    ",
"    @@@@@@@  @@@ @@@@@@@@@@@    ",
" %  @@@@@@@@@@@@@@@@@@@@@@@@ %  ",
"    @@@@@@@@@@@@@@@@@@@@@@@@    ",
"    @@@@@@@@@@@@@@@@@@@@@@@@    ",
"       %             $ +        ",
"          X    .    O%        %%"
};
