/* XPM */
static char *fuel1706999764[] = {
/* columns rows colors chars-per-pixel */
"32 32 9 1 ",
"  c black",
". c #040404",
"X c gray12",
"o c #464646",
"O c #5A5A5A",
"+ c #638B96",
"@ c #BADAE3",
"# c gray76",
"$ c white",
/* pixels */
"                                ",
"                                ",
"                                ",
"      o                $        ",
"        ooo                     ",
"         ooo                    ",
"          ooo                   ",
"           oo    +++++          ",
"          ++++   +  +++         ",
"          ++++   +   ++         ",
"          ++++   +    +  X      ",
"         ++++++++++++++         ",
"        ++@@@@@@@@@@@@+         ",
"        +@@+@@@@@@@+@@+         ",
"      o +@+++@@@@@+++@+         ",
"        +@@+++@@@+++@@+         ",
"        +@@@+++@+++@@@+         ",
"        +@@@@+++++@@@@+   o     ",
"        +@@@@@+++@@@@@+         ",
"        +@@@@+++++@@@@+         ",
"        +@@@+++@+++@@@+         ",
"        +@@+++@@@+++@@+         ",
"        +@+++@@@@@+++@+         ",
"        +@@+@@@@@@@+@@+ o       ",
"       #++@@@@@@@@@@@++         ",
"         +++++++++++++          ",
"       .                        ",
"        O            o          ",
"                                ",
"                                ",
"                                ",
"                                "
};
