/* XPM */
static char *_ada40b05b1e4876fbb842cbb1ed140b9wSZE7U4dF5kuZbq[] = {
/* columns rows colors chars-per-pixel */
"32 32 6 1 ",
"  c black",
". c #145C11",
"X c #464646",
"o c #1E8A19",
"O c #B4B4B4",
"+ c white",
/* pixels */
"                                ",
"                                ",
"                  O             ",
"                                ",
"        XXX+              O     ",
"    O    XXX                    ",
"          XXX           +       ",
"           XX    .....          ",
"          ....   .. ...         ",
"          ....   ..  ...        ",
"          ....   ..   ..        ",
"         ...............        ",
"   O    ..ooooooooooooo.     +  ",
"        .oo.ooooooo.ooo.        ",
"        .o...ooooo...oo.        ",
"       +.oo...ooo...ooo.        ",
"        .ooo...o...oooo.        ",
"        .oooo.....ooooo.       +",
"        .ooooo...oooooo.        ",
"        .oooo.....ooooo.        ",
"        .ooo...o...oooo.        ",
"        .oo...ooo...ooo.     O  ",
"        .o...ooooo...oo.        ",
"O       .oo.ooooooo.ooo.        ",
"        ..oooooooooooo..        ",
"         ..............         ",
"                          O     ",
"    O      O    O               ",
"                                ",
"                  +             ",
"                             +  ",
"O          +                    "
};
