/* XPM */
static char *result[] = {
/* columns rows colors chars-per-pixel */
"32 32 21 1 ",
"  c black",
". c #040404",
"X c #0B0B0B",
"o c gray10",
"O c gray12",
"+ c #202020",
"@ c gray22",
"# c #444444",
"$ c #4E4E4E",
"% c #5A5A5A",
"& c #4C4D7C",
"* c #A20033",
"= c #FC002C",
"- c #FF752A",
"; c #FFBD3F",
": c #2091DA",
"> c #C1C1C1",
", c gray76",
"< c gray87",
"1 c #D7F5EB",
"2 c white",
/* pixels */
"       %              <    2    ",
"                     <          ",
"                                ",
"  2   2         *      2        ",
"            <  ***            2 ",
"              *****             ",
"             *******            ",
"             *11111*            ",
"             1111111            ",
"             11&&&11            ",
"             1&::2&1     O      ",
"         <   1&:::&1       <   +",
"       o     11&&&11      %     ",
"        <    1111111            ",
"      >      1111111            ",
"             1111111       X    ",
"        +   *1111111*       ,   ",
"           **1111111**    < <   ",
"          ****11111****         ",
"         *****11*11*****       @",
"        ******11*11******       ",
"       *******11*11*******      ",
"       *******11*11*******      ",
"       ******   *   ******      ",
"       ******  ;*;  ******      ",
"       ****** =-;-= ******      ",
"       .      =-;-=             ",
" 2      %     =-;-=  #       2  ",
"              =---=             ",
"              2===              ",
"       2        =    < %        ",
"          +    X    $2        22"
};
