/* XPM */
static char *_beeb9ece4ab48e4eae41390f2fdceb4zIozqgnSRmyQ0mai[] = {
/* columns rows colors chars-per-pixel */
"32 32 14 1 ",
"  c black",
". c #040404",
"X c gray12",
"o c #464646",
"O c #5A5A5A",
"+ c #4C5175",
"@ c #B50037",
"# c #FF0037",
"$ c #FF6244",
"% c #FFB360",
"& c #0095CF",
"* c gray76",
"= c #CAF6EB",
"- c white",
/* pixels */
"                                ",
"               #                ",
"              ###               ",
"      o      #$$$#     -        ",
"             #$%$#              ",
"             #$%$#              ",
"      @@@@@@ #$%$# @@@@@@       ",
"      @@@@@@  %@%  @@@@@@       ",
"      @@@@@@   @   @@@@@@       ",
"      @@@@@@@==@==@@@@@@@       ",
"      @@@@@@@==@==@@@@@@@X      ",
"       @@@@@@==@==@@@@@@        ",
"        @@@@@==@==@@@@@         ",
"         @@@@=====@@@@          ",
"      o   @@=======@@           ",
"           @=======@            ",
"            =======             ",
"            =======       o     ",
"            =======             ",
"            ==+++==             ",
"            =+&&&+=             ",
"            =+-&&+=             ",
"            ==+++==             ",
"            =======     o       ",
"       *    @=====@             ",
"            @@@@@@@             ",
"       .     @@@@@              ",
"        O     @@@    o          ",
"               @                ",
"                                ",
"                                ",
"                                "
};
