/* XPM */
static char *result[] = {
/* columns rows colors chars-per-pixel */
"32 32 18 1 ",
"  c black",
". c #040404",
"X c #0B0B0B",
"o c gray12",
"O c #202020",
"+ c gray22",
"@ c #444444",
"# c #4E4E4E",
"$ c #5A5A5A",
"% c #4C4D7C",
"& c #A20033",
"* c #FD002C",
"= c #FF752A",
"- c #FFBD3F",
"; c #2091DA",
": c gray87",
"> c #D7F5EB",
", c white",
/* pixels */
"       $              :    ,    ",
"                     :          ",
"                                ",
"  ,   ,                ,        ",
"            :   ,             , ",
"                                ",
"                                ",
"      &&&&&                     ",
"      &&&&&&       $            ",
"      &&&&&&&                   ",
"      &&&&&&&&           o      ",
"      &&&&&&&&&            :   O",
"      &&&&&&&&&&   ,      $     ",
"        :&&&&&>>>>>>>>>>&&      ",
"   ****  >>>>>>>>>>>%%>>>&&     ",
"  *====- >>>>>>>>>>%;;%>>&&&    ",
" **=---&&&&&&>>>>>>%;;%>>&&&&   ",
"  *====- >>>>>>>>>>%;,%>>&&&:   ",
"   ****  >>>>>>>>>>>%%>>>&&     ",
"         &&&&&>>>>>>>>>>&&     +",
"      &&&&&&&&&&                ",
"      &&&&&&&&&                 ",
"      &&&&&&&&                  ",
"      &&&&&&&                   ",
"      &&&&&&                    ",
"      &&&&&                     ",
"       .                        ",
" ,      $            @       ,  ",
"                                ",
"              ,                 ",
"       ,             : $        ",
"          O    X    #,        ,,"
};
