/* XPM */
static char *_004bf8ea6be4132f2015aa0c3feeb1e1dYSTjXKWr4yJC5L[] = {
/* columns rows colors chars-per-pixel */
"32 32 20 1 ",
"  c black",
". c #040404",
"X c #0B0B0B",
"o c gray10",
"O c gray12",
"+ c #202020",
"@ c gray22",
"# c #444444",
"$ c #4E4E4E",
"% c #5A5A5A",
"& c #4C5175",
"* c #B50037",
"= c #FF0037",
"- c #FF6244",
"; c #FFB360",
": c #0095CF",
"> c #C1C1C1",
", c gray87",
"< c #CAF6EB",
"1 c white",
/* pixels */
"       %              ,    1    ",
"               =     ,          ",
"              ===               ",
"  1   1      =---=     1        ",
"            ,=-;-=            1 ",
"             =-;-=              ",
"      ****** =-;-= ******       ",
"      ******  ;*;  ******       ",
"      ******   *   ******       ",
"      *******<<*<<*******       ",
"      *******<<*<<*******O      ",
"       ******<<*<<******   ,   +",
"       o*****<<*<<*****   %     ",
"        ,****<<<<<****          ",
"      >   **<<<<<<<**           ",
"           *<<<<<<<*       X    ",
"        +   <<<<<<<         >   ",
"            <<<<<<<       , ,   ",
"            <<<<<<<             ",
"            <<&&&<<            @",
"            <&:::&<             ",
"            <&1::&<             ",
"            <<&&&<<             ",
"         1  <<<<<<<             ",
"       >    *<<<<<*             ",
"            *******             ",
"       .     *****              ",
" 1      %     ***    #       1  ",
"               *                ",
"              1                 ",
"       1             , %        ",
"          +    X    $1        11"
};
