/* XPM */
static char *shuttleup1706997610[] = {
/* columns rows colors chars-per-pixel */
"32 32 13 1 ",
"  c black",
". c #040404",
"X c gray12",
"o c #464646",
"O c #5A5A5A",
"+ c #4C4D7C",
"@ c #A20033",
"# c #FC002C",
"$ c #FF752A",
"% c #FFBD3F",
"& c #2091DA",
"* c #D7F5EB",
"= c white",
/* pixels */
"                                ",
"                                ",
"                                ",
"      o         @      =        ",
"            o  @@@              ",
"              @@@@@             ",
"             @@@@@@@            ",
"             @*****@            ",
"             *******            ",
"             **+++**            ",
"             *+&&=+*     X      ",
"         o   *+&&&+*            ",
"             **+++**            ",
"             *******            ",
"      o      *******            ",
"             *******            ",
"            @*******@           ",
"           @@*******@@    o     ",
"          @@@@*****@@@@         ",
"         @@@@@**@**@@@@@        ",
"        @@@@@@**@**@@@@@@       ",
"       @@@@@@@**@**@@@@@@@      ",
"       @@@@@@@**@**@@@@@@@      ",
"       @@@@@@   @   @@@@@@      ",
"       @@@@@@  %@%  @@@@@@      ",
"       @@@@@@ #$%$# @@@@@@      ",
"       .      #$%$#             ",
"        O     #$%$#  o          ",
"              #$$$#             ",
"               ###              ",
"                #               ",
"                                "
};
