/* XPM */
static char *_08c1d6663db4f6ffb2aa2654dbbe396CtkKh94u8EvptGKS[] = {
/* columns rows colors chars-per-pixel */
"32 32 18 1 ",
"  c black",
". c #040404",
"X c #0B0B0B",
"o c #202020",
"O c gray22",
"+ c #444444",
"@ c #4E4E4E",
"# c #5A5A5A",
"$ c #4C4F78",
"% c #AB0035",
"& c #FF0032",
"* c #FF6C3A",
"= c #FFB853",
"- c #0093D4",
"; c gray76",
": c gray87",
"> c #D1F5EB",
", c white",
/* pixels */
"       #              :    ,    ",
"                     :          ",
"                                ",
"  ,   ,                ,        ",
"            :   ,             , ",
"                                ",
"                     %%%%%      ",
"                    %%%%%%      ",
"                   %%%%%%%      ",
"                  %%%%%%%%      ",
"                 %%%%%%%%%      ",
"         :      %%%%%%%%%% :   o",
"      %%>>>>>>>>>>%%%%%   #     ",
"     %%>>>$$>>>>>>>>>>>  &&&&   ",
"    %%%>>$,-$>>>>>>>>>> =****&  ",
"   %%%%>>$--$>>>>>>%%%%%%===*&& ",
"    %%%>>$--$>>>>>>>>>> =****&  ",
"     %%>>>$$>>>>>>>>>>>  &&&&   ",
"      %%>>>>>>>>>>%%%%%         ",
"                %%%%%%%%%%     O",
"                 %%%%%%%%%      ",
"                  %%%%%%%%      ",
"                   %%%%%%%      ",
"         ,          %%%%%%      ",
"       ;             %%%%%      ",
"                                ",
"       .                        ",
" ,      #            +       ,  ",
"                                ",
"              ,                 ",
"       ,             : #        ",
"          o    X    @,        ,,"
};
