/* XPM */
static char *shuttleleft1706997611[] = {
/* columns rows colors chars-per-pixel */
"32 32 13 1 ",
"  c black",
". c #040404",
"X c #464646",
"o c #5A5A5A",
"O c #4C4F78",
"+ c #AB0035",
"@ c #FF0032",
"# c #FF6C3A",
"$ c #FFB853",
"% c #0093D4",
"& c gray76",
"* c #D1F5EB",
"= c white",
/* pixels */
"                                ",
"                                ",
"                                ",
"      X                =        ",
"            X                   ",
"                                ",
"                     +++++      ",
"                    ++++++      ",
"                   +++++++      ",
"                  ++++++++      ",
"                 +++++++++      ",
"         X      ++++++++++      ",
"      ++**********+++++         ",
"     ++***OO***********  @@@@   ",
"    +++**O=%O********** $####@  ",
"   ++++**O%%O******++++++$$$#@@ ",
"    +++**O%%O********** $####@  ",
"     ++***OO***********  @@@@   ",
"      ++**********+++++         ",
"                ++++++++++      ",
"                 +++++++++      ",
"                  ++++++++      ",
"                   +++++++      ",
"              X     ++++++      ",
"       &             +++++      ",
"                                ",
"       .                        ",
"        o            X          ",
"                                ",
"                                ",
"                                ",
"                                "
};
