/* XPM */
static char *Wall1706126748[] = {
/* columns rows colors chars-per-pixel */
"32 32 12 1 ",
"  c black",
". c #0B0B0B",
"X c #202020",
"o c gray22",
"O c #4E4E4E",
"+ c #5A5A5A",
"@ c #990030",
"# c #9C5A3C",
"$ c #E5AA7A",
"% c #B4B4B4",
"& c gray87",
"* c white",
/* pixels */
"       +              &    *    ",
"           @@@@@@@@  &          ",
"         @@@@@@@@@@@@@          ",
"  *   * @@@$$$$$$$@@@@@*        ",
"      @@@@$$$$$$$$$$$@@@@     * ",
"     @@@$$$$$$$$$$$$$$@@@@      ",
"    @@@$$$$$$$$$$$$$$$$$@@@     ",
"    @@$$#$$$$$$$$$$$$$$$$@@     ",
"   @@$$###$$$$$$$$$$$$$$$$@@    ",
"  @@@$$$%###$$$$$$$$$$$$$$@@@   ",
"  @@$$$$$$$$$$$$$$$$$$$$$$$@@   ",
" @@$$$$$$$$$$$$$$$$##$$$$$$@@  X",
" @@$$$$$$$$$$$$$$$$###$$$$$$@@  ",
" @@$$$$$$$$$$$$$$$$$%#$$$$$$@@  ",
" @@$$$$$$$$$$$$$$$$$$$$$$$$$@@  ",
" @@$$$$$$$$$$$$$$$$$$$$$$$$$@@  ",
" @@$$$$$$$$$$$$$$$$$$$$$$$$$@@  ",
" @@$$$$$$$$$$$$$$$$$$$$$$$$$@@  ",
" @@$$$$$$$$$$$$$$$$$$$$$$$$$@@  ",
"  @$$$$$$$$##$$$$$$$$$$$$$$@@@ o",
"  @@$$$$$$$###$$$$$$$$$$$$$@@   ",
"  @@@$$$$$$$%#$$$$$$$%$$$$@@@   ",
"   @@$$$$$$$$$$$$$$$###$$$@@    ",
"    @@$$$$$$$$$$$$$$#$#$$@@@    ",
"    @@@$$$$$$$$$$$$$$$$$@@@     ",
"     @@@$$$$$$$$$$$$$$$@@@      ",
"      @@@@$$$$$$$$$$$@@@@       ",
" *      @@@@$$@@@@$$@@@      *  ",
"         @@@@@@@@@@@@@          ",
"            @@@@@@@@            ",
"       *             & +        ",
"          X    .    O*        **"
};
