/* XPM */
static char *result[] = {
/* columns rows colors chars-per-pixel */
"32 32 9 1 ",
"  c black",
". c #464646",
"X c #ED1C24",
"o c #FF7E00",
"O c #82787E",
"+ c #FFC20E",
"@ c #B4B4B4",
"# c #F5E49C",
"$ c white",
/* pixels */
"                                ",
"                                ",
"                  @             ",
"               XXX              ",
"              XooX  XXXXXXXX    ",
"    @      @ Xo+oX XXXXXXXXX    ",
"            Xo+oX XXooooooXX    ",
"           Xo+oX XXoooooooXX    ",
"          Xo+oX XXoo++++ooXX    ",
"         Xo+oX XXoo+++++ooXX    ",
"        Xo+oX XXoo++##++ooXX    ",
"       Xo+oXXXXoo++###++ooXX    ",
"   @  XX#oXXXooo++###++ooXX  $  ",
"     XX#OOOOOOOO+###++ooXX      ",
"    XXXOO.OOOOOOO##++ooXX XXX   ",
"    XXOOOOOOO.OOOO++ooXX XooX   ",
"    XOOOOOOOO.O.OOOooXX Xo+oX   ",
"    XOO.OOOOO.OOOOOoXX Xo+oX   $",
"    XOO.OOOOOOOOOOOXX Xo+oX     ",
"    XOOOOOO.OOOOO.OXXXo+oX      ",
"    XOOOOOO.OOOOOOOXXo+oX       ",
"    XOOOO.OOOOOOOOOXo+oX     @  ",
"    XO.OOOOOOOO.OOOo+oX         ",
"@   XOOOOOOOOOO.OOO#oX          ",
"    XXOO...OOOO.OO#XX           ",
"     XXOOOOO.OOOOXXX            ",
"      XXOOOOOOOOXXX       @     ",
"    @  XXXXXXXXXXX              ",
"                                ",
"                  $             ",
"                             $  ",
"@          $                    "
};
