/* XPM */
static char *wall1706997610[] = {
/* columns rows colors chars-per-pixel */
"32 32 9 1 ",
"  c black",
". c #040404",
"X c gray12",
"o c #483654",
"O c #464646",
"+ c #5A5A5A",
"@ c #7D6F7D",
"# c gray76",
"$ c white",
/* pixels */
"                                ",
"                                ",
"                                ",
"      O                $        ",
"            O                   ",
"                                ",
"                                ",
"                                ",
"          oooooooooooo          ",
"         oo@@@@@@@@@@oo         ",
"        oo@@@@@@@@@@@@oo X      ",
"       oo@@@@O@@@@@@@@@oo       ",
"      oo@@@@@@@@@O@@@@@@oo      ",
"      o@@@@@@@@@@O@O@@@@@o      ",
"      o@@@@O@@@@@O@@@@@@@o      ",
"      o@@@@O@@@@@@@@@@@@@o      ",
"      o@@@@@@@@O@@@@@O@@@o      ",
"      o@@@@@@@@O@@@@@@@@@oO     ",
"      o@@@@@@O@@@@@@@@@@@o      ",
"      o@@@O@@@@@@@@O@@@@@o      ",
"      o@@@@@@@@@@@@O@@@@@o      ",
"      oo@@@@OOO@@@@O@@@@oo      ",
"       oo@@@@@@@O@@@@@@oo       ",
"        oo@@@@@@@@@@@@oo        ",
"       # oo@@@@@@@@@@oo         ",
"          oooooooooooo          ",
"       .                        ",
"        +            O          ",
"                                ",
"                                ",
"                                ",
"                                "
};
